<?xml version="1.0" standalone="no"?>
<!DOCTYPE svg PUBLIC "-//W3C//DTD SVG 20010904//EN"
 "http://www.w3.org/TR/2001/REC-SVG-20010904/DTD/svg10.dtd">
<svg version="1.0" xmlns="http://www.w3.org/2000/svg"
 width="400.000000pt" height="400.000000pt" viewBox="0 0 400.000000 400.000000"
 preserveAspectRatio="xMidYMid meet">
<metadata>
Created by potrace 1.11, written by Peter Selinger 2001-2013
</metadata>
<g transform="translate(0.000000,400.000000) scale(0.100000,-0.100000)"
fill="#000000" stroke="none">
<path d="M1936 3828 c-16 -51 -42 -133 -58 -183 -16 -49 -31 -97 -33 -105 -3
-14 -20 -68 -125 -395 -21 -66 -54 -174 -75 -240 -20 -66 -43 -136 -50 -156
-8 -20 -11 -39 -8 -43 4 -3 0 -6 -7 -6 -7 0 -11 -3 -7 -6 3 -4 0 -22 -8 -40
-8 -19 -11 -35 -7 -36 4 -2 -298 -5 -670 -8 l-677 -5 147 -110 c80 -60 154
-114 164 -119 36 -18 15 -23 -99 -22 -109 1 -171 -7 -174 -22 -7 -38 -2 -127
6 -139 16 -22 -29 -161 -61 -188 -20 -18 -24 -30 -25 -89 -1 -56 2 -72 16 -83
25 -17 202 -14 214 5 6 10 10 10 20 -2 12 -14 67 -16 426 -15 457 1 461 1 443
-55 -5 -17 -14 -39 -19 -49 -5 -10 -7 -22 -4 -27 4 -6 2 -10 -3 -10 -5 0 -9
-6 -9 -12 0 -11 -76 -255 -205 -658 -22 -69 -46 -145 -53 -170 -31 -106 -58
-186 -66 -196 -5 -6 -7 -13 -4 -16 3 -2 -6 -37 -20 -77 -13 -39 -19 -69 -13
-65 9 6 1027 766 1064 795 7 6 35 -9 75 -39 35 -27 100 -75 144 -108 44 -32
84 -63 90 -67 5 -5 153 -116 328 -247 174 -131 330 -247 345 -259 70 -54 115
-82 110 -70 -6 17 -86 270 -163 514 -66 211 -105 334 -171 540 -26 83 -49 155
-50 162 -1 6 -8 29 -14 49 -21 64 -12 66 284 65 282 0 286 1 286 62 l1 32 20
-42 c12 -27 28 -45 42 -48 12 -3 117 -4 232 -2 238 4 256 8 302 78 41 63 37
151 -11 214 l-25 32 25 11 c22 11 24 16 24 89 0 43 -4 84 -9 92 -6 9 -36 14
-92 16 -151 7 -168 6 -198 -9 -28 -15 -74 -62 -84 -88 -4 -9 -9 -7 -18 7 -7
10 -25 31 -40 45 l-29 26 27 19 c60 45 219 165 228 172 6 5 32 24 59 43 l48
35 -671 3 c-708 2 -677 0 -685 44 -1 7 -12 42 -23 78 -31 94 -135 423 -138
435 -1 6 -5 17 -8 25 -3 8 -13 42 -23 75 -21 72 -19 66 -27 85 -3 8 -17 51
-30 95 -14 44 -48 154 -77 245 -28 91 -56 180 -61 198 -6 17 -11 32 -12 32 -1
0 -15 -42 -31 -92z m-1290 -1588 c0 -30 6 -47 20 -57 16 -12 19 -27 19 -94 1
-44 -2 -82 -5 -84 -13 -8 -27 13 -48 71 -23 65 -25 79 -16 162 7 64 29 66 30
2z m2840 -173 c7 -4 14 -13 14 -18 0 -6 -4 -8 -9 -5 -5 3 -20 -3 -34 -14 l-26
-20 -14 20 c-12 18 -12 25 7 63 l21 43 13 -31 c7 -16 20 -33 28 -38z m-2546
-13 c0 -7 3 -19 6 -28 4 -11 0 -16 -12 -16 -9 0 -15 3 -11 6 3 3 2 16 -3 28
-6 17 -5 23 6 23 8 0 14 -6 14 -13z m2002 -46 c-7 -7 -12 -8 -12 -2 0 14 12
26 19 19 2 -3 -1 -11 -7 -17z"/>
<path d="M1085 417 c-47 -19 -61 -29 -88 -69 -24 -36 -25 -36 -31 -15 -3 12
-19 36 -36 52 -31 29 -32 30 -171 33 -89 3 -145 0 -151 -6 -15 -15 -12 -95 5
-107 15 -11 20 -115 5 -115 -4 0 -11 0 -15 0 -8 0 -9 4 -12 35 0 9 -12 27 -27
40 -24 23 -25 23 -5 30 22 7 23 9 25 60 2 59 -5 64 -101 63 -69 0 -95 -4 -120
-19 -29 -18 -51 -58 -47 -86 1 -7 2 -20 3 -28 0 -9 12 -27 25 -40 l25 -25 -25
-6 c-13 -3 -24 -11 -25 -18 -3 -37 0 -97 6 -105 4 -7 44 -10 105 -8 93 2 101
4 128 30 30 29 47 35 39 15 -2 -7 -1 -23 4 -35 8 -22 14 -23 103 -23 63 0 97
4 102 12 10 15 6 89 -6 103 -5 7 9 10 45 10 40 0 61 6 84 23 35 26 45 28 38 7
-4 -8 -2 -17 4 -20 5 -4 7 -10 4 -15 -8 -13 20 -64 51 -95 102 -102 283 -54
321 85 18 63 -2 145 -45 194 -43 48 -149 69 -217 43z m-275 -117 c0 -5 -7 -10
-15 -10 -8 0 -15 5 -15 10 0 6 7 10 15 10 8 0 15 -4 15 -10z"/>
<path d="M1356 404 c-10 -27 -6 -92 6 -96 18 -6 18 -109 1 -130 -9 -9 -13 -32
-11 -55 l3 -38 80 -3 c112 -4 122 0 120 43 -1 27 1 32 12 24 7 -7 13 -17 13
-24 0 -27 36 -45 93 -45 61 0 71 7 71 55 1 21 -9 40 -31 62 l-32 33 21 24 c19
20 24 21 36 10 8 -9 27 -12 48 -9 35 4 35 3 33 -28 -2 -18 -9 -39 -15 -47 -16
-19 -15 -82 0 -92 17 -12 181 -9 193 3 11 11 1 87 -14 98 -5 3 -9 21 -10 38
-1 30 2 33 24 29 13 -3 34 -2 46 3 16 5 28 1 44 -16 l22 -23 -25 -6 c-24 -6
-25 -10 -22 -68 l3 -61 90 -2 c110 -2 145 11 169 62 15 32 16 44 7 76 -7 21
-21 44 -33 50 l-22 12 26 13 c21 11 25 20 24 56 -1 24 -5 48 -9 55 -19 30
-237 4 -237 -28 0 -5 -5 -9 -11 -9 -6 0 -9 6 -6 14 12 30 -16 36 -169 36 -104
0 -155 -4 -160 -11 -4 -7 -7 -25 -6 -42 l1 -30 -27 32 c-35 41 -76 50 -223 51
-98 0 -118 -3 -123 -16z m201 -100 c-3 -3 -12 -4 -19 -1 -8 3 -5 6 6 6 11 1
17 -2 13 -5z m-12 -104 c3 -5 1 -10 -4 -10 -6 0 -11 5 -11 10 0 6 2 10 4 10 3
0 8 -4 11 -10z"/>
<path d="M2463 408 c-14 -18 -10 -82 6 -102 19 -22 18 -102 -1 -124 -15 -18
-18 -68 -5 -89 13 -20 255 -17 307 3 22 9 40 21 41 28 1 6 4 0 8 -14 6 -22 13
-25 61 -28 89 -5 99 0 95 53 -1 25 1 45 6 45 4 0 9 -21 11 -47 l3 -48 182 -2
c199 -3 202 -2 197 56 l-1 24 18 -24 c10 -13 19 -29 19 -35 0 -17 25 -24 85
-24 60 0 67 6 67 55 0 25 -8 41 -28 58 l-28 24 21 44 c24 51 18 88 -21 124
-31 29 -92 37 -231 33 l-100 -3 -3 -49 c-2 -31 1 -52 9 -57 16 -10 20 -116 4
-122 -6 -3 -16 -2 -21 1 -16 12 -53 112 -43 118 5 3 9 27 9 54 0 34 -4 50 -16
54 -31 12 -221 7 -232 -6 -12 -15 -13 -67 -2 -88 5 -9 1 -38 -10 -70 -18 -54
-40 -78 -40 -44 0 10 -7 25 -15 34 -13 15 -13 20 0 48 14 27 14 35 2 64 -24
55 -54 65 -208 67 -102 2 -138 -1 -146 -11z m207 -208 c0 -5 -7 -10 -16 -10
-8 0 -12 5 -9 10 3 6 10 10 16 10 5 0 9 -4 9 -10z m698 -25 c-3 -3 -9 2 -12
12 -6 14 -5 15 5 6 7 -7 10 -15 7 -18z"/>
</g>
</svg>
